<svg xmlns="http://www.w3.org/2000/svg" width="30.732" height="36" viewBox="0 0 30.732 36">
    <defs>
        <style>
            .cls-1{fill:#6279f4}.cls-2{fill:#6475f4;font-size:7px;font-family:SFProRounded-Heavy,SF Pro Rounded;font-weight:800}
        </style>
    </defs>
    <g id="Icon_02" data-name="Icon 02" transform="translate(-5855 636)">
        <path id="Path_26" d="M35.91 11.76a1.071 1.071 0 0 0-.056-.279l-.034-.089a1.03 1.03 0 0 0-.213-.314L24.84.31a1.083 1.083 0 0 0-.325-.216 1.087 1.087 0 0 0-.081-.029 1.04 1.04 0 0 0-.29-.056L24.09 0h-7.114a4.644 4.644 0 0 0-4.639 4.639v.624h-2.51A4.645 4.645 0 0 0 5.188 9.9v21.461A4.645 4.645 0 0 0 9.827 36h14.305a4.645 4.645 0 0 0 4.639-4.639v-.625h2.51A4.644 4.644 0 0 0 35.92 26.1V11.831zM25.152 3.628l7.139 7.14h-4.626a2.516 2.516 0 0 1-2.513-2.514V3.628zm1.493 27.732a2.517 2.517 0 0 1-2.513 2.514H9.826a2.517 2.517 0 0 1-2.513-2.514V9.9a2.517 2.517 0 0 1 2.513-2.512h6.051v6.128a4.644 4.644 0 0 0 4.639 4.639h6.128zM18 13.517V8.892l7.14 7.139h-4.623A2.516 2.516 0 0 1 18 13.517zM33.794 26.1a2.517 2.517 0 0 1-2.513 2.514h-2.51V17.093l-.01-.07a1.079 1.079 0 0 0-.056-.278l-.037-.1a1.043 1.043 0 0 0-.208-.307L17.691 5.572a1.016 1.016 0 0 0-.3-.2.786.786 0 0 0-.105-.041 1.024 1.024 0 0 0-.278-.056l-.071-.012h-2.475V4.64a2.517 2.517 0 0 1 2.514-2.514h6.051v6.128a4.644 4.644 0 0 0 4.638 4.639h6.128z" class="cls-1" data-name="Path 26" transform="translate(5849.812 -636)"/>
        <text id="New" class="cls-2" transform="translate(5873.768 -608)">
            <tspan x="-14.878" y="0">New</tspan>
        </text>
    </g>
</svg>
