<svg xmlns="http://www.w3.org/2000/svg" id="Icon_01" width="36.002" height="36.002" data-name="Icon 01" viewBox="0 0 36.002 36.002">
    <defs>
        <style>
            .cls-1{fill:#6279f4}
        </style>
    </defs>
    <path id="Path_24" d="M154.05 253.015a1.071 1.071 0 0 1-1.07-1.07 1.07 1.07 0 1 0-2.14 0 3.215 3.215 0 0 0 2.152 3.03v.937a1.07 1.07 0 1 0 2.14 0v-.945a3.21 3.21 0 0 0-1.082-6.233 1.07 1.07 0 1 1 1.07-1.07 1.07 1.07 0 1 0 2.14 0 3.216 3.216 0 0 0-2.129-3.023v-1.571a1.07 1.07 0 0 0-2.14 0v1.564a3.21 3.21 0 0 0 1.059 6.241 1.07 1.07 0 1 1 0 2.14zm0 0" class="cls-1" data-name="Path 24" transform="translate(-140.266 -225.26)"/>
    <path id="Path_25" d="M4.3 34.28C6.494 35.455 9.508 36 13.782 36a23.292 23.292 0 0 0 8.129-1.127A3.158 3.158 0 0 0 24.33 36h8.508a3.162 3.162 0 0 0 2.356-5.274 3.157 3.157 0 0 0 0-4.219 3.157 3.157 0 0 0 0-4.219 3.162 3.162 0 0 0-2.356-5.274H24.33c-.1 0-.2.005-.3.015a14.444 14.444 0 0 0-3.666-3.182 3.161 3.161 0 0 0-1-4.966l1.758-5.392a1.055 1.055 0 0 0-1-1.382h-3.357a3.164 3.164 0 0 0-5.966 0H7.454a1.055 1.055 0 0 0-1 1.382l1.755 5.395a3.161 3.161 0 0 0-1 4.968A15.045 15.045 0 0 0 0 26.509c0 3.629 1.446 6.243 4.3 7.771zm29.593-9.88a1.056 1.056 0 0 1-1.055 1.055H24.33a1.055 1.055 0 1 1 0-2.109h8.508a1.056 1.056 0 0 1 1.055 1.054zm0 4.219a1.056 1.056 0 0 1-1.055 1.055H24.33a1.055 1.055 0 1 1 0-2.109h8.508a1.056 1.056 0 0 1 1.055 1.054zm-1.055 5.274H24.33a1.055 1.055 0 0 1 0-2.109h8.508a1.055 1.055 0 1 1 0 2.109zm1.055-13.712a1.056 1.056 0 0 1-1.055 1.055H24.33a1.055 1.055 0 0 1 0-2.109h8.508a1.056 1.056 0 0 1 1.055 1.054zM17.971 12.8H9.563a1.055 1.055 0 0 1 0-2.109H18a1.055 1.055 0 0 1 0 2.109h-.03zm-6.3-8.579a1.055 1.055 0 0 0 1.055-1.055 1.055 1.055 0 1 1 2.109 0v2.108a1.055 1.055 0 0 0 2.11 0V4.219h1.711l-1.422 4.36h-6.905l-1.422-4.36zm-1.9 10.688h8.022a11.92 11.92 0 0 1 4.267 3.074 3.156 3.156 0 0 0-.085 4.309 3.157 3.157 0 0 0 0 4.219 3.157 3.157 0 0 0 0 4.219 3.152 3.152 0 0 0-.808 2.109v.065a21.316 21.316 0 0 1-7.385.99c-3.914 0-6.611-.468-8.487-1.473-2.173-1.164-3.185-3.041-3.185-5.91a12.8 12.8 0 0 1 7.659-11.604zm0 0" class="cls-1" data-name="Path 25"/>
</svg>
