<svg xmlns="http://www.w3.org/2000/svg" width="36.518" height="36.5" viewBox="0 0 36.518 36.5">
    <defs>
        <style>
            .cls-1{fill:#6279f4;stroke:#6279f4;stroke-width:.5px}
        </style>
    </defs>
    <g id="Icon_03" data-name="Icon 03" transform="translate(-4.694 .25)">
        <g id="Group_2" data-name="Group 2" transform="translate(4.953)">
            <path id="Path_28" d="M110.962 100a10.6 10.6 0 1 0 10.962 10.6 10.793 10.793 0 0 0-10.962-10.6zm0 19.393a8.8 8.8 0 1 1 9.1-8.8 8.964 8.964 0 0 1-9.1 8.8z" class="cls-1" data-name="Path 28" transform="translate(-92.966 -92.6)"/>
            <path id="Path_29" d="M39.709 18.571a1.175 1.175 0 0 1-.008-1.4l.639-.891a2.96 2.96 0 0 0 .481-2.424 3.01 3.01 0 0 0-1.533-1.956l-.977-.516a1.19 1.19 0 0 1-.632-1.252l.188-1.076a2.984 2.984 0 0 0-.639-2.387 3.1 3.1 0 0 0-2.248-1.112l-1.113-.047a1.21 1.21 0 0 1-1.12-.862l-.324-1.038a3.071 3.071 0 0 0-2.947-2.166 3.114 3.114 0 0 0-1.211.243l-1.023.427a1.255 1.255 0 0 1-1.391-.3L25.107 1a3.1 3.1 0 0 0-4.594.029l-.722.825a1.26 1.26 0 0 1-1.391.326l-1.03-.413a3.185 3.185 0 0 0-1.17-.227 3.057 3.057 0 0 0-2.95 2.21l-.293 1.05a1.217 1.217 0 0 1-1.113.877l-1.105.066a3.068 3.068 0 0 0-2.234 1.145 2.965 2.965 0 0 0-.6 2.394l.2 1.068a1.189 1.189 0 0 1-.605 1.267l-.97.53a3.019 3.019 0 0 0-1.5 1.982 2.955 2.955 0 0 0 .519 2.416l.654.877a1.175 1.175 0 0 1 .008 1.4l-.639.891a2.96 2.96 0 0 0-.481 2.424A3.01 3.01 0 0 0 6.618 24.1l.977.516a1.19 1.19 0 0 1 .632 1.252l-.188 1.076a2.984 2.984 0 0 0 .639 2.387 3.1 3.1 0 0 0 2.248 1.112l1.113.044a1.21 1.21 0 0 1 1.12.862l.308 1.046a3.071 3.071 0 0 0 2.947 2.166 3.114 3.114 0 0 0 1.211-.243l1.023-.427a1.255 1.255 0 0 1 1.391.3l.744.81a3.1 3.1 0 0 0 4.594-.029l.729-.825a1.26 1.26 0 0 1 1.394-.327l1.03.413a3.185 3.185 0 0 0 1.165.228 3.057 3.057 0 0 0 2.955-2.21l.293-1.053a1.217 1.217 0 0 1 1.113-.877l1.113-.066a3.08 3.08 0 0 0 2.231-1.143 2.958 2.958 0 0 0 .6-2.394l-.2-1.068a1.189 1.189 0 0 1 .609-1.267l.97-.53a3.019 3.019 0 0 0 1.5-1.982 2.955 2.955 0 0 0-.519-2.416zm-.624 2.91a1.192 1.192 0 0 1-.6.788l-.97.53a2.978 2.978 0 0 0-1.526 3.168l.2 1.068a1.157 1.157 0 0 1-.241.958 1.222 1.222 0 0 1-.895.457l-1.105.066a3.045 3.045 0 0 0-2.782 2.2l-.293 1.046a1.219 1.219 0 0 1-1.18.884 1.276 1.276 0 0 1-.466-.088l-1.03-.413a3.185 3.185 0 0 0-1.165-.228 3.105 3.105 0 0 0-2.316 1.031l-.729.818a1.241 1.241 0 0 1-1.835.015l-.744-.81a3.117 3.117 0 0 0-3.5-.759l-1.023.427a1.235 1.235 0 0 1-1.654-.766l-.308-1.046a3.061 3.061 0 0 0-2.812-2.166L11 28.619a1.2 1.2 0 0 1-.895-.442 1.156 1.156 0 0 1-.256-.95l.188-1.076a2.979 2.979 0 0 0-1.577-3.145l-.977-.516a1.183 1.183 0 0 1-.617-.781 1.136 1.136 0 0 1 .2-.965l.639-.891a2.948 2.948 0 0 0-.03-3.506l-.654-.877a1.14 1.14 0 0 1-.2-.965 1.192 1.192 0 0 1 .6-.788l.97-.53a2.978 2.978 0 0 0 1.526-3.168l-.2-1.061A1.157 1.157 0 0 1 9.957 8a1.222 1.222 0 0 1 .895-.457l1.105-.066a3.053 3.053 0 0 0 2.782-2.2l.293-1.053a1.219 1.219 0 0 1 1.18-.884 1.277 1.277 0 0 1 .466.088l1.03.413a3.185 3.185 0 0 0 1.165.228 3.105 3.105 0 0 0 2.317-1.034l.729-.818a1.241 1.241 0 0 1 1.835-.017l.744.81a3.105 3.105 0 0 0 2.286 1 3.087 3.087 0 0 0 1.211-.243l1.023-.427a1.235 1.235 0 0 1 1.654.766l.308 1.046a3.061 3.061 0 0 0 2.812 2.166l1.113.044a1.223 1.223 0 0 1 .9.442 1.156 1.156 0 0 1 .256.95l-.188 1.076a2.979 2.979 0 0 0 1.579 3.145l.977.516a1.183 1.183 0 0 1 .617.781 1.159 1.159 0 0 1-.188.965l-.639.891a2.948 2.948 0 0 0 .03 3.506l.654.877a1.275 1.275 0 0 1 .182.97z" class="cls-1" data-name="Path 29" transform="translate(-4.953)"/>
            <path id="Path_30" d="M194.689 201.347l-3.967 3.944-1.288-1.3a.908.908 0 0 0-1.288 1.28l1.931 1.939a.907.907 0 0 0 .644.266.9.9 0 0 0 .636-.266l4.61-4.581a.908.908 0 1 0-1.28-1.288z" class="cls-1" data-name="Path 30" transform="translate(-174.066 -186.289)"/>
        </g>
    </g>
</svg>
