<svg xmlns="http://www.w3.org/2000/svg" width="28.254" height="36.25" viewBox="0 0 28.254 36.25">
    <defs>
        <style>
            .cls-1{fill:#fff}.cls-2,.cls-3{fill:#6279f4}.cls-3{stroke:#6279f4;stroke-width:.5px}
        </style>
    </defs>
    <g id="Icon_06" data-name="Icon 06" transform="translate(-5756.605 89)">
        <g id="Group_16" data-name="Group 16" transform="translate(5756.605 -89)">
            <path id="Path_41" d="M.23.719L20.221.7l.02 24.419-20.034-.04z" class="cls-1" data-name="Path 41" transform="translate(1.782 5.424)"/>
            <path id="Path_42" d="M6 24.447h8.146v2.094H6z" class="cls-1" data-name="Path 42" transform="translate(1.962 -20.439)"/>
            <path id="Path_43" d="M10.024 23.877l4.119 2.608H6z" class="cls-1" data-name="Path 43" transform="translate(1.962 -22.185)"/>
            <path id="Path_31" d="M135.84 192.306a1.017 1.017 0 0 0-1.436 0l-3.339 3.341-1.31-1.312a1.014 1.014 0 1 0-1.434 1.434l2.028 2.028a1 1 0 0 0 .716.3 1.019 1.019 0 0 0 .718-.3l4.057-4.057a1.015 1.015 0 0 0 0-1.434z" class="cls-2" data-name="Path 31" transform="translate(-124.042 -179.802)"/>
            <path id="Path_32" d="M135.84 320.306a1.017 1.017 0 0 0-1.436 0l-3.339 3.341-1.31-1.31a1.014 1.014 0 0 0-1.434 1.434l2.028 2.028a1.016 1.016 0 0 0 1.434 0l4.057-4.057a1.015 1.015 0 0 0 0-1.436z" class="cls-2" data-name="Path 32" transform="translate(-124.042 -299.666)"/>
            <path id="Path_33" d="M293.071 224h-4.057a1.014 1.014 0 0 0 0 2.028h4.057a1.014 1.014 0 0 0 0-2.028z" class="cls-2" data-name="Path 33" transform="translate(-274.039 -209.766)"/>
            <path id="Path_34" d="M293.071 352h-4.057a1.014 1.014 0 0 0 0 2.028h4.057a1.014 1.014 0 0 0 0-2.028z" class="cls-2" data-name="Path 34" transform="translate(-274.039 -329.632)"/>
            <path id="Path_35" d="M86.032 4.066h-4.006V3.05a1.009 1.009 0 0 0-1-1.017h-2.174a2.992 2.992 0 0 0-5.668 0H71.01a1.009 1.009 0 0 0-1 1.017v1.016H66A2.022 2.022 0 0 0 64 6.1v24.4a2.022 2.022 0 0 0 2 2.033h20.032a2.021 2.021 0 0 0 2-2.033V6.1a2.021 2.021 0 0 0-2-2.034zm-14.02 0h2a1.009 1.009 0 0 0 1-1.017 1 1 0 1 1 2 0 1.009 1.009 0 0 0 1 1.017h2V6.1h-8zM86.032 30.5H66V6.1h4.006v1.016a1.009 1.009 0 0 0 1 1.017h10.019a1.009 1.009 0 0 0 1-1.017V6.1h4.006z" class="cls-2" data-name="Path 35" transform="translate(-64)"/>
        </g>
        <g id="Group_94" data-name="Group 94" transform="translate(5768.873 -68.732)">
            <circle id="Ellipse_23" cx="7" cy="7" r="7" class="cls-1" data-name="Ellipse 23" transform="translate(.867 .867)"/>
            <g id="sticker">
                <g id="Group_2" data-name="Group 2">
                    <path id="Path_28" d="M104.791 100a4.633 4.633 0 1 0 4.791 4.631 4.717 4.717 0 0 0-4.791-4.631zm0 8.475a3.847 3.847 0 1 1 3.977-3.844 3.917 3.917 0 0 1-3.977 3.844z" class="cls-3" data-name="Path 28" transform="translate(-96.926 -96.766)"/>
                    <path id="Path_29" d="M20.142 8.116a.513.513 0 0 1 0-.612l.279-.39a1.293 1.293 0 0 0 .21-1.059 1.315 1.315 0 0 0-.67-.856l-.427-.225a.52.52 0 0 1-.276-.547l.082-.47a1.3 1.3 0 0 0-.279-1.043 1.353 1.353 0 0 0-.982-.486l-.486-.019a.529.529 0 0 1-.49-.377l-.141-.454A1.342 1.342 0 0 0 15.67.631a1.361 1.361 0 0 0-.529.106l-.447.187a.548.548 0 0 1-.608-.132l-.325-.354a1.356 1.356 0 0 0-2.008.013l-.315.361a.55.55 0 0 1-.608.142l-.45-.18a1.392 1.392 0 0 0-.509-.1 1.336 1.336 0 0 0-1.291.966l-.128.46a.532.532 0 0 1-.486.383l-.483.029a1.341 1.341 0 0 0-.976.5 1.3 1.3 0 0 0-.263 1.046l.089.467a.52.52 0 0 1-.266.554l-.424.232a1.319 1.319 0 0 0-.657.866 1.291 1.291 0 0 0 .225 1.053l.286.383a.513.513 0 0 1 0 .612l-.279.39a1.293 1.293 0 0 0-.21 1.059 1.315 1.315 0 0 0 .67.856l.427.225a.52.52 0 0 1 .276.547l-.082.47a1.3 1.3 0 0 0 .279 1.043 1.353 1.353 0 0 0 .982.486l.486.019a.529.529 0 0 1 .49.377l.135.457a1.342 1.342 0 0 0 1.288.946 1.361 1.361 0 0 0 .532-.1l.447-.187a.548.548 0 0 1 .608.132l.325.354a1.356 1.356 0 0 0 2.008-.013l.319-.361a.55.55 0 0 1 .608-.142l.45.18a1.392 1.392 0 0 0 .509.1 1.336 1.336 0 0 0 1.291-.966l.128-.46a.532.532 0 0 1 .486-.383l.486-.029a1.346 1.346 0 0 0 .976-.5 1.293 1.293 0 0 0 .263-1.046l-.089-.467a.52.52 0 0 1 .266-.554l.428-.234a1.319 1.319 0 0 0 .657-.866 1.291 1.291 0 0 0-.229-1.058zm-.273 1.272a.521.521 0 0 1-.263.344l-.424.232a1.3 1.3 0 0 0-.667 1.384l.089.467a.506.506 0 0 1-.105.418.534.534 0 0 1-.391.2l-.483.029a1.331 1.331 0 0 0-1.216.963l-.128.457a.533.533 0 0 1-.516.386.558.558 0 0 1-.2-.039l-.45-.18a1.392 1.392 0 0 0-.509-.1 1.357 1.357 0 0 0-1.012.451l-.319.357a.542.542 0 0 1-.8.006l-.325-.354a1.362 1.362 0 0 0-1.528-.332l-.447.187a.54.54 0 0 1-.723-.335l-.135-.457a1.338 1.338 0 0 0-1.229-.946l-.488-.019a.522.522 0 0 1-.391-.193.505.505 0 0 1-.112-.415l.082-.47a1.3 1.3 0 0 0-.69-1.375l-.427-.225a.517.517 0 0 1-.269-.341.5.5 0 0 1 .085-.422l.279-.39a1.288 1.288 0 0 0-.013-1.532l-.289-.384a.5.5 0 0 1-.089-.422.521.521 0 0 1 .263-.344l.424-.232a1.3 1.3 0 0 0 .667-1.384l-.085-.464A.506.506 0 0 1 7.14 3.5a.534.534 0 0 1 .391-.2l.483-.029A1.334 1.334 0 0 0 9.229 2.3l.128-.46a.533.533 0 0 1 .516-.386.558.558 0 0 1 .2.039l.45.18a1.392 1.392 0 0 0 .509.1 1.357 1.357 0 0 0 1.012-.451l.319-.357a.542.542 0 0 1 .8-.006l.325.354a1.357 1.357 0 0 0 1 .438 1.349 1.349 0 0 0 .529-.106l.447-.187a.54.54 0 0 1 .723.335l.135.457a1.338 1.338 0 0 0 1.229.946l.486.019a.535.535 0 0 1 .394.193.505.505 0 0 1 .112.415l-.082.47a1.3 1.3 0 0 0 .69 1.375l.427.225a.517.517 0 0 1 .269.341.507.507 0 0 1-.082.422l-.279.39a1.288 1.288 0 0 0 .014 1.537l.286.383a.557.557 0 0 1 .083.421z" class="cls-3" data-name="Path 29" transform="translate(-4.953)"/>
                    <path id="Path_30" d="M190.86 201.2l-1.733 1.724-.563-.566a.4.4 0 0 0-.563.56l.844.847a.4.4 0 0 0 .281.116.394.394 0 0 0 .278-.116l2.015-2a.4.4 0 1 0-.559-.563z" class="cls-3" data-name="Path 30" transform="translate(-181.847 -194.62)"/>
                </g>
            </g>
        </g>
    </g>
</svg>
