<svg xmlns="http://www.w3.org/2000/svg" width="142.665" height="166.857" viewBox="0 0 142.665 166.857">
    <defs>
        <style>
            .cls-1{fill:#eaeaea}.cls-2{fill:#ebeef2}.cls-3{fill:#5c9cee}.cls-4{fill:#f2df33}.cls-5{fill:#ed5575}.cls-6{fill:#9fd479}.cls-7{fill:#fcab29}.cls-8{fill:#48cfb7}
        </style>
    </defs>
    <g id="Illustration" transform="translate(-5972 -1353)">
        <ellipse id="Ellipse_18" cx="66" cy="8" class="cls-1" data-name="Ellipse 18" rx="66" ry="8" transform="translate(5974 1503.857)"/>
        <path id="Path_46" d="M7.5 52v98.813a4.38 4.38 0 0 0 4.38 4.38H141a4.38 4.38 0 0 0 4.38-4.38V52a4.38 4.38 0 0 0-4.38-4.38H11.88A4.38 4.38 0 0 0 7.5 52z" class="cls-2" data-name="Path 46" transform="translate(5966.895 1318.497)"/>
        <g id="Group_43" data-name="Group 43" transform="translate(6006.77 1379.826)">
            <g id="Group_39" data-name="Group 39" transform="translate(0 30.712)">
                <circle id="Ellipse_12" cx="5.589" cy="5.589" r="5.589" class="cls-3" data-name="Ellipse 12"/>
            </g>
            <g id="Group_40" data-name="Group 40" transform="translate(21.983 18.23)">
                <circle id="Ellipse_13" cx="5.589" cy="5.589" r="5.589" class="cls-4" data-name="Ellipse 13"/>
            </g>
            <g id="Group_41" data-name="Group 41" transform="translate(43.966 30.712)">
                <circle id="Ellipse_14" cx="5.589" cy="5.589" r="5.589" class="cls-5" data-name="Ellipse 14"/>
            </g>
            <g id="Group_42" data-name="Group 42" transform="translate(65.948)">
                <circle id="Ellipse_15" cx="5.589" cy="5.589" r="5.589" class="cls-6" data-name="Ellipse 15"/>
            </g>
        </g>
        <path id="Path_48" d="M80.428 392.131v-7.666h91.3v7.666a3.051 3.051 0 0 1-3.051 3.051H83.479a3.051 3.051 0 0 1-3.051-3.051z" class="cls-4" data-name="Path 48" transform="translate(5917.256 1089.22)"/>
        <path id="Path_49" d="M335.558 384.465v7.666a3.051 3.051 0 0 1-3.051 3.051h7.744a3.051 3.051 0 0 0 3.051-3.051v-7.666z" class="cls-7" data-name="Path 49" transform="translate(5745.679 1089.22)"/>
        <path id="Path_50" d="M189.243 24.774v-7.1a3.614 3.614 0 0 1 3.614-3.614h14.568a3.614 3.614 0 0 1 3.614 3.614v7.1h-21.8z" class="cls-4" data-name="Path 50" transform="translate(5843.192 1341.338)"/>
        <path id="Path_51" d="M229.555 14.058h-7.8a3.614 3.614 0 0 1 3.614 3.614v7.1h7.8v-7.1a3.614 3.614 0 0 0-3.614-3.614z" class="cls-7" data-name="Path 51" transform="translate(5821.062 1341.337)"/>
        <path id="Path_54" d="M169.049 99.029a7.993 7.993 0 1 0-6.379-3.189l-13.118 18.331a7.962 7.962 0 0 0-7.92 1.744l-8.743-4.961a7.984 7.984 0 1 0-15.609 0l-8.743 4.961a7.972 7.972 0 1 0 2.37 4.163l8.743-4.961a7.964 7.964 0 0 0 10.869 0l8.743 4.961a7.984 7.984 0 1 0 14.184-3.117l13.118-18.331a7.959 7.959 0 0 0 2.485.399zm0-11.178a3.194 3.194 0 1 1-3.193 3.194 3.2 3.2 0 0 1 3.193-3.194zM103.1 124.95a3.194 3.194 0 1 1 3.193-3.194 3.2 3.2 0 0 1-3.193 3.194zm21.983-12.482a3.194 3.194 0 1 1 3.193-3.194 3.2 3.2 0 0 1-3.192 3.194zm21.983 12.482a3.194 3.194 0 1 1 3.194-3.194 3.2 3.2 0 0 1-3.194 3.194z" data-name="Path 54" transform="translate(5907.258 1291.37)"/>
        <path id="Path_55" d="M133.743 147.689H6.775A1.987 1.987 0 0 1 4.79 145.7V46.891a1.987 1.987 0 0 1 1.985-1.985h11.291a2.4 2.4 0 0 0 0-4.79H6.775A6.783 6.783 0 0 0 0 46.891V145.7a6.783 6.783 0 0 0 6.775 6.775H23.29v5.271a5.452 5.452 0 0 0 5.446 5.446H52.71l-11.286 22.039a2.4 2.4 0 1 0 4.263 2.184l12.4-24.218h26.486l12.4 24.218a2.4 2.4 0 1 0 4.263-2.184L89.955 163.2h23.975a5.452 5.452 0 0 0 5.446-5.446v-5.271h14.366a2.4 2.4 0 1 0 0-4.79zm-19.157 10.061a.656.656 0 0 1-.656.656H28.735a.656.656 0 0 1-.656-.656v-5.271h86.506z" data-name="Path 55" transform="translate(5972 1323.601)"/>
        <path id="Path_56" d="M81.466 22.065H189.71a1.987 1.987 0 0 1 1.985 1.985v22.773a2.4 2.4 0 0 0 4.79 0V24.05a6.783 6.783 0 0 0-6.775-6.775h-51.264v-4.708a6.016 6.016 0 0 0-6.009-6.009h-14.568a6.016 6.016 0 0 0-6.009 6.009v4.708H81.466a2.4 2.4 0 0 0 0 4.79zm35.183-9.5a1.22 1.22 0 0 1 1.219-1.219h14.568a1.22 1.22 0 0 1 1.219 1.219v4.708H116.65v-4.706z" data-name="Path 56" transform="translate(5918.18 1346.442)"/>
        <rect id="Rectangle_35" width="9.717" height="21.164" class="cls-8" data-name="Rectangle 35" rx="2" transform="translate(6009.396 1444)"/>
        <path id="Path_57" d="M99.8 267.576a2.4 2.4 0 0 0-2.4 2.4v21.164a2.4 2.4 0 0 0 2.4 2.4h9.717a2.4 2.4 0 0 0 2.4-2.4v-21.169a2.4 2.4 0 0 0-2.4-2.4zm7.322 21.164h-4.927v-16.373h4.927z" data-name="Path 57" transform="translate(5905.598 1170.424)"/>
        <rect id="Rectangle_36" width="9.717" height="33.404" class="cls-8" data-name="Rectangle 36" rx="2" transform="translate(6031.396 1432)"/>
        <path id="Path_58" d="M168.632 229.248a2.4 2.4 0 0 0-2.4 2.4v33.4a2.4 2.4 0 0 0 2.4 2.4h9.717a2.4 2.4 0 0 0 2.4-2.4v-33.4a2.4 2.4 0 0 0-2.4-2.4zm7.322 33.4h-4.927v-28.61h4.927z" data-name="Path 58" transform="translate(5858.763 1196.752)"/>
        <rect id="Rectangle_38" width="9.717" height="32.949" class="cls-8" data-name="Rectangle 38" rx="2" transform="translate(6074 1432)"/>
        <path id="Path_72" d="M168.632 229.248a2.4 2.4 0 0 0-2.4 2.4v33.4a2.4 2.4 0 0 0 2.4 2.4h9.717a2.4 2.4 0 0 0 2.4-2.4v-33.4a2.4 2.4 0 0 0-2.4-2.4zm7.322 33.4h-4.927v-28.61h4.927z" data-name="Path 72" transform="translate(5901.763 1196.752)"/>
        <rect id="Rectangle_37" width="9.717" height="21.164" class="cls-8" data-name="Rectangle 37" rx="2" transform="translate(6052 1444)"/>
        <path id="Path_59" d="M237.468 267.576a2.4 2.4 0 0 0-2.4 2.4v21.164a2.4 2.4 0 0 0 2.4 2.4h9.717a2.4 2.4 0 0 0 2.4-2.4v-21.169a2.4 2.4 0 0 0-2.4-2.4zm7.322 21.164h-4.927v-16.373h4.927z" data-name="Path 59" transform="translate(5810.927 1170.424)"/>
        <path id="Path_79" d="M2.4 147.689h126.963a1.987 1.987 0 0 0 1.985-1.985V46.891a1.987 1.987 0 0 0-1.985-1.985h-11.291a2.4 2.4 0 0 1 0-4.79h11.291a6.783 6.783 0 0 1 6.775 6.775V145.7a6.783 6.783 0 0 1-6.775 6.775h-16.515v5.271a5.452 5.452 0 0 1-5.448 5.454H83.427l11.286 22.035a2.4 2.4 0 1 1-4.263 2.184L78.045 163.2H51.564l-12.4 24.218a2.4 2.4 0 1 1-4.263-2.184L46.182 163.2H22.207a5.452 5.452 0 0 1-5.446-5.446v-5.271H2.4a2.4 2.4 0 1 1 0-4.79zm19.152 10.061a.656.656 0 0 0 .656.656H107.4a.656.656 0 0 0 .656-.656v-5.271H21.552z" data-name="Path 79" transform="translate(5978.5 1323.601)"/>
    </g>
</svg>
