<svg xmlns="http://www.w3.org/2000/svg" width="61" height="65.012" viewBox="0 0 61 65.012">
    <defs>
        <style>
            .cls-1{fill:#6279f4;stroke:#6279f4}
        </style>
    </defs>
    <g id="Member_02" data-name="Member 02" transform="translate(-15.5 .516)">
        <g id="Outline" transform="translate(16 -.004)">
            <path id="Path_74" d="M67.789 43.669l-12.968-2.358a1 1 0 0 1-.821-.984v-3.895a13.76 13.76 0 0 0 4.94-6.5 4.579 4.579 0 0 0 3.709-3.412l.57-2.28a3.411 3.411 0 0 0-2.133-4.037l.281-1.375a15.986 15.986 0 0 0 .254-1.72v-.006c.045-.485.069-.971.069-1.454a15.469 15.469 0 0 0-1.209-6.01 15.712 15.712 0 0 0-20.4-8.495A1 1 0 1 0 40.837 3a13.708 13.708 0 0 1 18.755 11.01 10.5 10.5 0 0 0-4.428-2l-.39-.065-3.833 2.555a8.911 8.911 0 0 1-9.883 0l-3.833-2.555-.39.065a10.5 10.5 0 0 0-4.43 2 13.571 13.571 0 0 1 2.614-6.5 1 1 0 1 0-1.6-1.194 15.7 15.7 0 0 0-2.289 4.357 15.492 15.492 0 0 0-.82 4.976 15.907 15.907 0 0 0 .325 3.18l.281 1.375a3.411 3.411 0 0 0-2.132 4.037l.57 2.279a4.577 4.577 0 0 0 3.709 3.414 13.761 13.761 0 0 0 4.94 6.5v3.895a1 1 0 0 1-.821.984l-12.971 2.356A10 10 0 0 0 16 53.507V63a1 1 0 0 0 2 0v-9.493a8 8 0 0 1 6.569-7.871l11.551-2.1a9.97 9.97 0 0 0 1.265 3.538 1 1 0 1 0 1.721-1.017 7.991 7.991 0 0 1-1.026-2.932 3 3 0 0 0 1.92-2.8v-2.706a13.733 13.733 0 0 0 12 0v2.708a3 3 0 0 0 1.922 2.8A7.971 7.971 0 0 1 46 50a8.231 8.231 0 0 1-1.193-.088 1 1 0 1 0-.3 1.977A10.185 10.185 0 0 0 46 52a9.982 9.982 0 0 0 9.879-8.46l11.552 2.1A8 8 0 0 1 74 53.507V63a1 1 0 0 0 2 0v-9.493a10 10 0 0 0-8.211-9.838zM46 37a11.706 11.706 0 0 1-11.245-8.3l-.216-.7h-.74a2.58 2.58 0 0 1-2.507-1.959l-.57-2.28A1.417 1.417 0 0 1 32.1 22h1.226l-.731-3.566q-.13-.636-.2-1.278c.956-2.043 3.464-2.851 4.407-3.087l3.15 2.1a10.91 10.91 0 0 0 12.1 0l3.15-2.1c.945.237 3.451 1.045 4.407 3.087a13.59 13.59 0 0 1-.2 1.279l-.73 3.559V22H59.9a1.407 1.407 0 0 1 1.009.421 1.429 1.429 0 0 1 .41.991 1.453 1.453 0 0 1-.044.35l-.57 2.279A2.581 2.581 0 0 1 58.2 28h-.734l-.222.7A11.707 11.707 0 0 1 46 37z" class="cls-1" data-name="Path 74" transform="translate(-16 .004)"/>
            <path id="Path_75" d="M81 440a1 1 0 0 0-1 1v6.97a1 1 0 1 0 1.992 0V441a1 1 0 0 0-.992-1z" class="cls-1" data-name="Path 75" transform="translate(-72.034 -384.962)"/>
            <path id="Path_76" d="M417 440a1 1 0 0 0-1 1v6.97a1 1 0 1 0 1.992 0V441a1 1 0 0 0-.992-1z" class="cls-1" data-name="Path 76" transform="translate(-365.958 -384.962)"/>
            <path id="Path_77" d="M209.361 387.914a1 1 0 0 0-1.131 1.638l.017.011a1 1 0 1 0 1.115-1.649z" class="cls-1" data-name="Path 77" transform="translate(-183.841 -339.276)"/>
            <path id="Path_78" d="M177.061 26.552a.984.984 0 0 0 .6-.2l.01-.007a1 1 0 1 0-.61.209z" class="cls-1" data-name="Path 78" transform="translate(-156.054 -21.503)"/>
        </g>
    </g>
</svg>
