<svg xmlns="http://www.w3.org/2000/svg" width="60" height="61.017" viewBox="0 0 60 61.017">
    <defs>
        <style>
            .cls-1{fill:#fff}.cls-2{clip-path:url(#clip-path)}.cls-3{fill:#6279f4;stroke:#6279f4}
        </style>
        <clipPath id="clip-path">
            <path id="Rectangle_39" d="M0 0h60v61.017H0z" class="cls-1" data-name="Rectangle 39" transform="translate(5808.213 1164.184)"/>
        </clipPath>
    </defs>
    <g id="Member_01" class="cls-2" data-name="Member 01" transform="translate(-5808.213 -1164.184)">
        <g id="man_1_" data-name="man (1)" transform="translate(5808.952 1163.993)">
            <g id="Group_71" data-name="Group 71">
                <path id="Path_73" d="M139.757 69.192a1.251 1.251 0 0 0-1.251 1.251V82.2a.692.692 0 0 1-.691.691h-6.725v-24.63a1.251 1.251 0 0 0-2.5 0V82.9h-13.542l3.927-4.32a2.243 2.243 0 0 0 .541-1.8c0-.013 0-.025-.006-.038l-3.74-22.094 1.008-1.517a2.837 2.837 0 0 0 1.791.777 2.191 2.191 0 0 0 1.961-1.212l3.945-7.906 8.986 3.48a8.668 8.668 0 0 1 5.046 7.879v8.461a1.251 1.251 0 0 0 2.5 0v-8.466a11.164 11.164 0 0 0-6.6-10.2l-.024-.01-14.956-5.792v-3.503a11.721 11.721 0 0 0 4.436-7.71 5.415 5.415 0 0 0 3.181-1.3 5.311 5.311 0 0 0 .554-7.494V15.5a15.5 15.5 0 1 0-31.007 0v4.755a5.023 5.023 0 0 0-1.29 3.348 5.3 5.3 0 0 0 1.845 4.025 5.412 5.412 0 0 0 3.179 1.3 11.6 11.6 0 0 0 4.69 7.9v3.323l-14.94 5.792-.024.009a11.164 11.164 0 0 0-6.6 10.2V82.2a3.2 3.2 0 0 0 3.189 3.2h11.918a1.251 1.251 0 0 0 0-2.5h-2.691V58.261a1.251 1.251 0 1 0-2.5 0V82.9H86.64a.692.692 0 0 1-.691-.691V56.144a8.668 8.668 0 0 1 5.044-7.878l8.979-3.481 3.945 7.906a2.19 2.19 0 0 0 1.961 1.213 2.835 2.835 0 0 0 1.791-.777l1.008 1.517-3.74 22.095c0 .013 0 .025-.006.038a2.243 2.243 0 0 0 .541 1.8L109.4 82.9h-5a1.251 1.251 0 0 0 0 2.5h33.419a3.2 3.2 0 0 0 3.193-3.193V70.444a1.252 1.252 0 0 0-1.255-1.252zm-17.626-25.314l-3.678 7.371-4.423-3.141 4.543-5.607zm-7.394 7.8l-.954 1.436h-3.12l-.954-1.436 2.514-1.785zm-7.222-11.127V38.21a12.693 12.693 0 0 0 4.73.9 11.744 11.744 0 0 0 4.679-.975v2.43l-4.7 5.8zm18.871-16.943a2.8 2.8 0 0 1-.974 2.127 2.914 2.914 0 0 1-1.445.665v-5.584a2.83 2.83 0 0 1 2.418 2.792zM100.22 26.4a2.827 2.827 0 0 1-2.42-2.793 2.971 2.971 0 0 1 2.418-2.729zm.067-8.07a6.184 6.184 0 0 0-1.2.269V15.5a13 13 0 1 1 26 0v3.009a5.561 5.561 0 0 0-1.128-.218c0-1.207.011-.974-3.938-5.22a2.226 2.226 0 0 0-2.842-.346 24.118 24.118 0 0 1-14.58 3.925 2.224 2.224 0 0 0-2.312 1.68zm2.435 9.055v-8.216a26.733 26.733 0 0 0 15.635-4.217c1.811 1.944 2.792 2.964 3.108 3.352v9.08a9.373 9.373 0 0 1-18.743 0zm3.272 23.864l-3.678-7.371 3.551-1.376 4.544 5.608zm1.435 25.76l3.621-21.393h2.35l3.621 21.393-4.794 5.274z" class="cls-3" data-name="Path 73" transform="translate(-83.447)"/>
            </g>
        </g>
    </g>
</svg>
