<svg xmlns="http://www.w3.org/2000/svg" width="60.75" height="44.652" viewBox="0 0 60.75 44.652">
    <defs>
        <style>
            .cls-1{fill:#6279f4;stroke:#6279f4;stroke-width:.75px}
        </style>
    </defs>
    <g id="Team" transform="translate(.375 -67.691)">
        <g id="Group_52" data-name="Group 52" transform="translate(46.084 86.8)">
            <g id="Group_51" data-name="Group 51">
                <path id="Path_65" d="M399.632 229.477c-2.033-1.016-5.845-1.028-6.006-1.028a.875.875 0 1 0 0 1.75 15.113 15.113 0 0 1 5.223.843.875.875 0 0 0 .783-1.566z" class="cls-1" data-name="Path 65" transform="translate(-392.751 -228.449)"/>
            </g>
        </g>
        <g id="Group_54" data-name="Group 54" transform="translate(0 68.066)">
            <g id="Group_53" data-name="Group 53">
                <path id="Path_66" d="M57.318 100.3l-3.63-1.034a.367.367 0 0 1-.266-.352v-1.206a6.6 6.6 0 0 0 .84-.687 6.434 6.434 0 0 0 1.979-4.662v-1.667l.351-.7a5.574 5.574 0 0 0 .589-2.486v-4.514a.877.877 0 0 0-.879-.876h-8.458a5.575 5.575 0 0 0-5.578 5.559v.052a4.634 4.634 0 0 0 .49 2.067l.45.9v1.431a6.828 6.828 0 0 0 2.819 5.527v1.266c0 .2 0 .276-.726.483l-1.771.5-5.124-1.857a.873.873 0 0 0-.24-.671l-1.635-1.713v-2.878c.173-.142.344-.288.509-.443a10.266 10.266 0 0 0 3.25-7.474v-2.3a10.1 10.1 0 0 0 .94-4.258v-9.365a.877.877 0 0 0-.879-.876H27.192a8.393 8.393 0 0 0-8.4 8.369v1.873a10.1 10.1 0 0 0 .94 4.258v1.978a10.69 10.69 0 0 0 3.759 8.17v2.946l-1.637 1.714a.873.873 0 0 0-.24.671l-5.408 1.96a4.615 4.615 0 0 0-1.087.567l-.849-.423a6.706 6.706 0 0 0 3.367-2.716.873.873 0 0 0 0-.784c-.634-1.263-.71-3.578-.772-5.438-.021-.619-.04-1.2-.077-1.725a7.633 7.633 0 0 0-7.455-7.371 7.633 7.633 0 0 0-7.455 7.371 46.425 46.425 0 0 0-.077 1.726c-.062 1.86-.139 4.175-.772 5.438a.873.873 0 0 0 0 .784 6.7 6.7 0 0 0 3.37 2.714l-2.359 1.175A3.666 3.666 0 0 0 0 104.62v6.472a.879.879 0 0 0 1.758 0v-6.472a1.923 1.923 0 0 1 1.072-1.73l2.937-1.464 1.022.968a3.705 3.705 0 0 0 5.1 0l1.022-.968.958.477a4.6 4.6 0 0 0-.707 2.446v6.742a.879.879 0 0 0 1.758 0v-6.741a2.88 2.88 0 0 1 1.9-2.7l5.7-2.066 2.373 3.549a1.813 1.813 0 0 0 1.334.8q.091.009.181.009a1.815 1.815 0 0 0 1.284-.531l1.448-1.443v9.125a.879.879 0 0 0 1.758 0v-9.125l1.448 1.443a1.814 1.814 0 0 0 1.284.531q.09 0 .181-.009a1.813 1.813 0 0 0 1.334-.8l2.374-3.548 5.7 2.066a2.88 2.88 0 0 1 1.9 2.7v6.742a.879.879 0 0 0 1.758 0v-6.743a4.623 4.623 0 0 0-1.3-3.205l.217-.062a4.829 4.829 0 0 0 .818-.294l2.244 2.237v8.067a.879.879 0 0 0 1.758 0v-8.067l2.228-2.221a2.1 2.1 0 0 0 .374.148l3.63 1.034a1.943 1.943 0 0 1 1.407 1.86v7.247a.879.879 0 0 0 1.758 0v-7.247a3.7 3.7 0 0 0-2.693-3.547zm-51.68-1.547a6.319 6.319 0 0 1-2.821-1.8 9.63 9.63 0 0 0 .5-2.1A6.537 6.537 0 0 0 5.638 97.7zm5.035 2.371a1.944 1.944 0 0 1-2.673 0l-.817-.774a1.808 1.808 0 0 0 .214-.855v-.934a6.556 6.556 0 0 0 3.881 0v.933a1.808 1.808 0 0 0 .214.856zM9.337 97.1a4.757 4.757 0 0 1-4.76-4.744.874.874 0 0 0-1.023-.856c0-.075.005-.151.008-.225.02-.6.038-1.171.073-1.659a6.494 6.494 0 0 1 1.777-4.084 5.473 5.473 0 0 1 7.849 0 6.494 6.494 0 0 1 1.777 4.084c.035.488.054 1.057.074 1.659l.005.156a7.9 7.9 0 0 0-4.341-3.162 11.065 11.065 0 0 0-3.343-.528.88.88 0 0 0-.608.259l-1.586 1.643A.878.878 0 0 0 6.5 90.859L7.824 89.5c1.136.055 4.792.479 6.214 3.6a4.743 4.743 0 0 1-4.701 4zm3.7 1.654v-1.042a6.484 6.484 0 0 0 2.32-2.856 9.618 9.618 0 0 0 .5 2.093 6.35 6.35 0 0 1-2.822 1.807zm8.458-14.212v-2.171a.874.874 0 0 0-.087-.381 8.38 8.38 0 0 1-.852-3.681v-1.874a6.636 6.636 0 0 1 6.639-6.617h12.274v8.491a8.38 8.38 0 0 1-.852 3.681.874.874 0 0 0-.087.381v2.494a8.4 8.4 0 0 1-2.694 6.2 8.74 8.74 0 0 1-.675.569l-.015.011a8.47 8.47 0 0 1-5.7 1.7 8.688 8.688 0 0 1-7.953-8.801zm4.949 17.627a.055.055 0 0 1-.049.017.056.056 0 0 1-.045-.027l-2.733-4.087.88-.921 4.147 2.825zm3.57-3.381l-4.76-3.243v-1.632a9.92 9.92 0 0 0 4.077 1.173q.348.022.692.022a10.208 10.208 0 0 0 4.751-1.16v1.6zm3.664 3.372a.056.056 0 0 1-.045.027.054.054 0 0 1-.049-.017l-2.2-2.192 4.147-2.825.88.921zm16.049-.739l-1.995-1.988a2.4 2.4 0 0 0 .054-.52v-.37a6.182 6.182 0 0 0 1.74.306h.2a6.549 6.549 0 0 0 1.938-.292v.353a2.088 2.088 0 0 0 .064.511zm3.314-5.66a4.732 4.732 0 0 1-3.464 1.339 4.911 4.911 0 0 1-4.613-4.977v-1.638a.873.873 0 0 0-.093-.392l-.543-1.082a2.878 2.878 0 0 1-.3-1.284v-.052a3.818 3.818 0 0 1 3.82-3.807h7.579v3.638a3.817 3.817 0 0 1-.4 1.7l-.444.884a.873.873 0 0 0-.093.392v1.873a4.7 4.7 0 0 1-1.452 3.408z" class="cls-1" data-name="Path 66" transform="translate(0 -68.066)"/>
            </g>
        </g>
        <g id="Group_56" data-name="Group 56" transform="translate(54.506 104.603)">
            <g id="Group_55" data-name="Group 55">
                <path id="Path_67" d="M465.8 380.814a.875.875 0 0 0-.875.875v5.611a.875.875 0 1 0 1.75 0v-5.615a.875.875 0 0 0-.875-.871z" class="cls-1" data-name="Path 67" transform="translate(-464.923 -380.814)"/>
            </g>
        </g>
        <g id="Group_58" data-name="Group 58" transform="translate(3.743 105.76)">
            <g id="Group_57" data-name="Group 57">
                <path id="Path_68" d="M32.952 390.728a.875.875 0 0 0-.875.875v4.458a.875.875 0 1 0 1.75 0V391.6a.875.875 0 0 0-.875-.872z" class="cls-1" data-name="Path 68" transform="translate(-32.077 -390.728)"/>
            </g>
        </g>
        <g id="Group_60" data-name="Group 60" transform="translate(22.585 76.025)">
            <g id="Group_59" data-name="Group 59">
                <path id="Path_69" d="M207.055 138.8c-3.31-3.31-10.236-2.677-13.06-2.252a1.8 1.8 0 0 0-1.535 1.79v2.016a.875.875 0 1 0 1.75 0v-2.014a.058.058 0 0 1 .046-.059 27.652 27.652 0 0 1 5.686-.278c2.729.182 4.706.867 5.876 2.036a.875.875 0 0 0 1.238-1.238z" class="cls-1" data-name="Path 69" transform="translate(-192.46 -136.203)"/>
            </g>
        </g>
        <g id="Group_62" data-name="Group 62" transform="translate(18.797 106.474)">
            <g id="Group_61" data-name="Group 61">
                <path id="Path_70" d="M161.259 396.853a.875.875 0 0 0-.875.875v3.743a.875.875 0 1 0 1.75 0v-3.743a.875.875 0 0 0-.875-.875z" class="cls-1" data-name="Path 70" transform="translate(-160.384 -396.853)"/>
            </g>
        </g>
        <g id="Group_64" data-name="Group 64" transform="translate(39.474 106.474)">
            <g id="Group_63" data-name="Group 63">
                <path id="Path_71" d="M337.681 396.853a.875.875 0 0 0-.875.875v3.743a.875.875 0 1 0 1.75 0v-3.743a.875.875 0 0 0-.875-.875z" class="cls-1" data-name="Path 71" transform="translate(-336.806 -396.853)"/>
            </g>
        </g>
    </g>
</svg>
